<svg width="30" height="30" viewBox="0 0 30 30" fill="none" xmlns="http://www.w3.org/2000/svg">
<path d="M14.3024 28.6048C6.41863 28.6048 0 22.1861 0 14.3024C0 6.41863 6.41863 0 14.3024 0C22.1861 0 28.6048 6.41863 28.6048 14.3024C28.6048 22.1861 22.1861 28.6048 14.3024 28.6048ZM14.3024 2.09303C7.56283 2.09303 2.09303 7.57678 2.09303 14.3024C2.09303 21.028 7.56283 26.5117 14.3024 26.5117C21.042 26.5117 26.5117 21.028 26.5117 14.3024C26.5117 7.57678 21.042 2.09303 14.3024 2.09303Z" fill="#292D32"/>
<path d="M28.9542 30C28.6891 30 28.424 29.9023 28.2147 29.693L25.424 26.9023C25.0193 26.4977 25.0193 25.8279 25.424 25.4232C25.8286 25.0186 26.4984 25.0186 26.903 25.4232L29.6938 28.214C30.0984 28.6186 30.0984 29.2884 29.6938 29.693C29.4845 29.9023 29.2193 30 28.9542 30Z" fill="#292D32"/>
</svg>
